<svg width="304" height="88" viewBox="0 0 304 88" fill="none" xmlns="http://www.w3.org/2000/svg">
<path d="M24.0625 51.5625V67H13.9688V22.1875H29.7812C41.0729 22.1875 46.7188 26.9479 46.7188 36.4688C46.7188 40.9688 45.0938 44.6146 41.8438 47.4062C38.6146 50.1771 34.2917 51.5625 28.875 51.5625H24.0625ZM24.0625 29.9375V43.9062H28.0312C33.4062 43.9062 36.0938 41.5521 36.0938 36.8438C36.0938 32.2396 33.4062 29.9375 28.0312 29.9375H24.0625Z" fill="#8DD3BB"/>
<path d="M143.062 51.5625V67H132.969V22.1875H148.781C160.073 22.1875 165.719 26.9479 165.719 36.4688C165.719 40.9688 164.094 44.6146 160.844 47.4062C157.615 50.1771 153.292 51.5625 147.875 51.5625H143.062ZM143.062 29.9375V43.9062H147.031C152.406 43.9062 155.094 41.5521 155.094 36.8438C155.094 32.2396 152.406 29.9375 147.031 29.9375H143.062Z" fill="#8DD3BB"/>
<path d="M297.312 67H285.719L278.75 55.4688C278.229 54.5938 277.729 53.8125 277.25 53.125C276.771 52.4375 276.281 51.8542 275.781 51.375C275.302 50.875 274.792 50.5 274.25 50.25C273.729 49.9792 273.156 49.8438 272.531 49.8438H269.812V67H259.719V22.1875H275.719C286.594 22.1875 292.031 26.25 292.031 34.375C292.031 35.9375 291.792 37.3854 291.312 38.7188C290.833 40.0312 290.156 41.2188 289.281 42.2812C288.406 43.3438 287.344 44.2604 286.094 45.0312C284.865 45.8021 283.49 46.4062 281.969 46.8438V46.9688C282.635 47.1771 283.281 47.5208 283.906 48C284.531 48.4583 285.135 49 285.719 49.625C286.302 50.25 286.854 50.9271 287.375 51.6562C287.917 52.3646 288.406 53.0625 288.844 53.75L297.312 67ZM269.812 29.75V42.2188H274.188C276.354 42.2188 278.094 41.5938 279.406 40.3438C280.74 39.0729 281.406 37.5 281.406 35.625C281.406 31.7083 279.062 29.75 274.375 29.75H269.812Z" fill="#8DD3BB"/>
<path d="M92.5312 67H81.5312L78.3438 57.0312H62.4062L59.25 67H48.3125L64.625 22.1875H76.5938L92.5312 67ZM76.0312 49.2812L71.2188 34.2188C70.8646 33.0938 70.6146 31.75 70.4688 30.1875H70.2188C70.1146 31.5 69.8542 32.8021 69.4375 34.0938L64.5625 49.2812H76.0312Z" fill="#8DD3BB"/>
<path d="M95.625 65.2812V55.2812C97.4375 56.8021 99.4062 57.9479 101.531 58.7188C103.656 59.4688 105.802 59.8438 107.969 59.8438C109.24 59.8438 110.344 59.7292 111.281 59.5C112.24 59.2708 113.031 58.9583 113.656 58.5625C114.302 58.1458 114.781 57.6667 115.094 57.125C115.406 56.5625 115.562 55.9583 115.562 55.3125C115.562 54.4375 115.312 53.6562 114.812 52.9688C114.312 52.2812 113.625 51.6458 112.75 51.0625C111.896 50.4792 110.875 49.9167 109.688 49.375C108.5 48.8333 107.219 48.2812 105.844 47.7188C102.344 46.2604 99.7292 44.4792 98 42.375C96.2917 40.2708 95.4375 37.7292 95.4375 34.75C95.4375 32.4167 95.9062 30.4167 96.8438 28.75C97.7812 27.0625 99.0521 25.6771 100.656 24.5938C102.281 23.5104 104.156 22.7188 106.281 22.2188C108.406 21.6979 110.656 21.4375 113.031 21.4375C115.365 21.4375 117.427 21.5833 119.219 21.875C121.031 22.1458 122.698 22.5729 124.219 23.1562V32.5C123.469 31.9792 122.646 31.5208 121.75 31.125C120.875 30.7292 119.969 30.4062 119.031 30.1562C118.094 29.8854 117.156 29.6875 116.219 29.5625C115.302 29.4375 114.427 29.375 113.594 29.375C112.448 29.375 111.406 29.4896 110.469 29.7188C109.531 29.9271 108.74 30.2292 108.094 30.625C107.448 31.0208 106.948 31.5 106.594 32.0625C106.24 32.6042 106.062 33.2188 106.062 33.9062C106.062 34.6562 106.26 35.3333 106.656 35.9375C107.052 36.5208 107.615 37.0833 108.344 37.625C109.073 38.1458 109.958 38.6667 111 39.1875C112.042 39.6875 113.219 40.2083 114.531 40.75C116.323 41.5 117.927 42.3021 119.344 43.1562C120.781 43.9896 122.01 44.9375 123.031 46C124.052 47.0625 124.833 48.2812 125.375 49.6562C125.917 51.0104 126.188 52.5938 126.188 54.4062C126.188 56.9062 125.708 59.0104 124.75 60.7188C123.812 62.4062 122.531 63.7812 120.906 64.8438C119.281 65.8854 117.385 66.6354 115.219 67.0938C113.073 67.5521 110.802 67.7812 108.406 67.7812C105.948 67.7812 103.604 67.5729 101.375 67.1562C99.1667 66.7396 97.25 66.1146 95.625 65.2812Z" fill="#8DD3BB"/>
<path fill-rule="evenodd" clip-rule="evenodd" d="M236.693 30.217C231.928 19.031 221.169 11.2009 206.62 11.2009C186.656 11.2009 174.204 25.9421 174.204 43.8672C174.204 55.6904 179.44 66.0406 188.768 71.7744C189.786 71.0535 190.469 70.5022 190.469 70.5022C194.657 67.7694 198.747 64.8989 202.733 61.8963C194.077 60.0529 189.704 52.1982 189.704 43.8672C189.704 34.4627 195.561 25.3076 206.733 25.3076C217.157 25.3076 223.762 34.4627 223.762 43.8672C223.762 43.8744 223.762 43.8816 223.762 43.8889C228.26 39.5212 232.574 34.9603 236.693 30.217ZM206.779 76.5334C218.436 68.2872 229.267 58.9346 239.117 48.6139C237.144 64.4016 225.28 76.5182 206.779 76.5334Z" fill="#8DD3BB"/>
<path d="M247.302 1.54367C231.463 -4.28028 220.076 8.25141 220.076 8.25141L230.873 14.5286C234.918 12.2058 236.72 14.4606 237.184 15.6956C237.513 16.5681 237.071 17.5199 236.72 18.0411L234.091 21.361C219.906 38.4702 203.228 53.336 184.613 65.4825C184.613 65.4825 178.993 70.0147 176.002 70.0827C173.486 70.1394 172.365 68.0205 174.483 64.9839L169.272 53.2227C169.272 53.2227 155.71 62.1059 158.338 77.7195C159.448 84.314 165.646 89.0049 172.229 87.8151C175.594 87.2146 179.752 85.5717 184.839 82.2065L194.198 76.0879C212.813 63.9188 229.502 49.0077 243.676 31.8758L246.894 27.9894C251.743 22.4714 253.919 17.9278 254.655 14.336C255.788 8.8406 252.537 3.46988 247.302 1.54367Z" fill="#8DD3BB"/>
</svg>
